<svg id="from" xmlns="http://www.w3.org/2000/svg" xmlns:xlink="http://www.w3.org/1999/xlink" viewBox="0 0 350 330">
  <g>
    <animateTransform xlink:href="#cabin"
                  attributeName="transform"
                  id="cabin_animate"
                  type="skewX"
                  values="0.5; 0; -0.5; 0; 0.5"
                  keyTimes="0; 0.25; 0.5; 0.75; 1"
                  dur="2s"
                  fill="freeze"
                  repeatCount="indefinite"
    >
    </animateTransform>
    <animateTransform xlink:href="#cabin"
                  attributeName="transform"
                  type="scale"
                  values="1, 0.99; 1; 1, 0.99; 1; 1, 0.99"
                  keyTimes="0; 0.25; 0.5; 0.75; 1"
                  dur="2s"
                  fill="freeze"
                  additive="sum"
                  repeatCount="indefinite"
                  begin="cabin_animate.begin"
    >
    </animateTransform>
    <animateTransform xlink:href="#tail_behind"
                  attributeName="transform"
                  type="translate"
                  values="0, 3.5; 0, -3.5; 0, 3.5"
                  keyTimes="0; 0.5; 1"
                  dur="2s"
                  fill="freeze"
                  repeatCount="indefinite"
                  begin="cabin_animate.begin"
    >
    </animateTransform>
    <animateTransform xlink:href="#tail_front"
                  attributeName="transform"
                  type="translate"
                  values="0, -1.5; 0, 1.5; 0, -1.5"
                  keyTimes="0; 0.5; 1"
                  dur="2s"
                  fill="freeze"
                  repeatCount="indefinite"
                  begin="cabin_animate.begin"
    >
    </animateTransform>
    <animate xlink:href="#middle_body"
                  attributeName="d"
                  values="
                  M 132.18 186.12 C 147.36 178.73 177.384 170.818 205.614 170.818 C 250.144 170.818 278.25 182.55 278.6 190.5 C 278.6 190.67 278.6 190.84 278.6 191.01 C 277.75 198.87 249.774 199.878 205.624 199.878 C 177.394 199.878 148.93 199.42 132.19 195.18 C 128.4 194.18 126.4 192.65 126.19 191.05 L 126.19 190.54 C 126.32 188.85 128.34 187.18 132.29 186.17;
                  M 132.18 186.12 C 148.92 181.85 176.76 176.12 204.99 176.12 C 249.52 176.12 278.25 182.55 278.6 190.5 C 278.6 190.67 278.6 190.84 278.6 191.01 C 277.75 198.87 249.15 205.18 205 205.18 C 176.77 205.18 148.93 199.42 132.19 195.18 C 128.4 194.18 126.4 192.65 126.19 191.05 L 126.19 190.54 C 126.32 188.85 128.34 187.18 132.29 186.17;
                  M 132.18 186.12 C 147.36 178.73 177.384 170.818 205.614 170.818 C 250.144 170.818 278.25 182.55 278.6 190.5 C 278.6 190.67 278.6 190.84 278.6 191.01 C 277.75 198.87 249.774 199.878 205.624 199.878 C 177.394 199.878 148.93 199.42 132.19 195.18 C 128.4 194.18 126.4 192.65 126.19 191.05 L 126.19 190.54 C 126.32 188.85 128.34 187.18 132.29 186.17"
                  keyTimes="0; 0.5; 1"
                  dur="2s"
                  fill="freeze"
                  repeatCount="indefinite"
                  begin="cabin_animate.begin"
    >
    </animate>
    <animate xlink:href="#cabin_window_big"
                  attributeName="d"
                  from="M204.25,231.88h-2.05a3.45,3.45,0,0,0-3.43,3.45v2.92a3.45,3.45,0,0,0,3.43,3.45h2.05a3.45,3.45,0,0,0,3.43-3.45v-2.92A3.44,3.44,0,0,0,204.25,231.88Z"
                  to="m 272.66636,151.98899 h -11.99545 a 20.18747,25.656743 0 0 0 -20.07044,25.65674 v 21.71528 a 20.18747,25.656743 0 0 0 20.07044,25.65675 h 11.99545 a 20.18747,25.656743 0 0 0 20.07046,-25.65675 v -21.71528 a 20.128954,25.582377 0 0 0 -20.07046,-25.65674 z"
                  dur="0.5s"
                  begin="mountain_animate.end"
                  fill="freeze"
    >
    </animate>
    <animate  xlink:href="#air1"
                  attributeType="XML"
                  attributeName="x2"
                  by="3"
                  dur="1s"
                  calcMode="discrete"
                  repeatCount="indefinite"
                  begin="cabin_animate.begin"
    />
    <animate  xlink:href="#air2"
                  attributeType="XML"
                  attributeName="x2"
                  by="5"
                  dur="0.6s"
                  calcMode="discrete"
                  repeatCount="indefinite"
                  begin="cabin_animate.begin"
    />
    <animate  xlink:href="#air3"
                  attributeType="XML"
                  attributeName="x2"
                  by="3"
                  dur="0.8s"
                  calcMode="discrete"
                  repeatCount="indefinite"
                  begin="cabin_animate.begin"
    />
    <animate  xlink:href="#cloud1"
                  id="cloud1_animate"
                  attributeType="CSS"
                  attributeName="opacity"
                  from="0"
                  to="1"
                  dur="0.2s"
                  fill="freeze"
    />
    <animate  xlink:href="#cloud1"
                  attributeType="CSS"
                  attributeName="opacity"
                  from="1"
                  to="0"
                  dur="0.2s"
                  begin="cloud1_animate.begin + 1.9s"
                  fill="freeze"
    />
    <animateTransform xlink:href="#cloud1_line"
                  attributeName="transform"
                  type="translate"
                  from="170, 0"
                  to="-20, 0"
                  fill="freeze"
                  dur="2.1s"
                  begin="cloud1_animate.begin"
    >
    </animateTransform>
    <animateTransform xlink:href="#cloud1_path"
                  attributeName="transform"
                  type="translate"
                  from="170, 0"
                  to="-20, 0"
                  fill="freeze"
                  dur="2s"
                  begin="cloud1_animate.begin + 0.09s"
                  repeatCount="1"
    >
    </animateTransform>
    <animate  xlink:href="#cloud2"
                  id="cloud2_animate"
                  attributeName="opacity"
                  attributeType="CSS"
                  from="0"
                  to="1"
                  dur="0.2s"
                  begin="1.5s"
                  fill="freeze"
    />
    <animate  xlink:href="#cloud2"
                  attributeName="opacity"
                  attributeType="CSS"
                  from="1"
                  to="0"
                  dur="0.2s"
                  begin="cloud2_animate.begin + 1.25s"
                  fill="freeze"
    />
    <animateTransform xlink:href="#cloud2_path"
                  attributeName="transform"
                  type="translate"
                  from="20, 0"
                  to="-190, 0"
                  fill="freeze"
                  dur="2s"

                  begin="cloud2_animate.begin"
                  repeatCount="1"
    >
    </animateTransform>
    <animateTransform xlink:href="#cloud2_line"
                  attributeName="transform"
                  type="translate"
                  from="20, 0"
                  to="-190, 0"
                  fill="freeze"
                  dur="2.2s"
                  begin="cloud2_animate.begin"
                  repeatCount="1"
    >
    </animateTransform>
    <animate xlink:href="#mountain_path"
                  id="mountain_animate"
                  attributeName="d"
                  values="
                  M 289.94 327.88 L 244.88 327.88 L 212.8 296.58 C 212.459 296.292 212.027 296.134 211.58 296.134 C 211.133 296.134 210.701 296.292 210.36 296.58 C 206.96 299.99 203.56 303.4 200.16 306.81 C 199.848 307.08 199.448 307.229 199.035 307.229 C 198.622 307.229 198.222 307.08 197.91 306.81 L 178.91 286.64 C 178.477 286.274 177.927 286.072 177.36 286.072 C 176.793 286.072 176.243 286.274 175.81 286.64 L 149.39 312.28 C 149.079 312.552 148.679 312.702 148.265 312.702 C 147.851 312.702 147.451 312.552 147.14 312.28 C 146.263 311.307 145.387 310.333 144.51 309.36 C 144.195 309.071 143.782 308.911 143.355 308.911 C 142.928 308.911 142.515 309.071 142.2 309.36 L 124.63 329 L 80.78 329;
                  M 289.94 327.88 L 244.88 327.88 L 212.8 311.743 C 212.565 311.545 212.294 311.412 212.011 311.346 C 211.728 311.28 211.432 311.28 211.149 311.346 C 210.866 311.412 210.595 311.545 210.36 311.743 C 206.96 313.631 203.56 315.52 200.16 317.408 C 199.514 317.966 198.556 317.966 197.91 317.408 L 178.91 305.553 C 178.463 305.175 177.911 304.985 177.36 304.985 C 176.809 304.985 176.257 305.175 175.81 305.553 L 149.39 322.878 C 148.746 323.441 147.784 323.441 147.14 322.878 C 146.263 321.905 145.387 320.931 144.51 319.958 C 144.292 319.758 144.035 319.625 143.766 319.559 C 143.496 319.492 143.214 319.492 142.944 319.559 C 142.675 319.625 142.418 319.758 142.2 319.958 L 124.63 327.88 L 80.78 327.88"
                  keyTimes="0; 1"
                  dur="0.25s"
                  begin="2.5s"
                  fill="freeze"
    >
    </animate>
    <animate xlink:href="#mountain_path"
                  attributeName="d"
                  values="
                  M 289.94 327.88 L 244.88 327.88 L 212.8 311.743 C 212.096 311.148 211.064 311.148 210.36 311.743 L 200.16 317.408 C 199.514 317.966 198.556 317.966 197.91 317.408 L 178.91 305.553 C 178.015 304.796 176.705 304.796 175.81 305.553 L 149.39 322.878 C 148.746 323.441 147.784 323.441 147.14 322.878 L 144.51 319.958 C 143.856 319.359 142.854 319.359 142.2 319.958 L 124.63 327.88 L 80.78 327.88;
                  M 289.94 327.88 L 244.88 327.88 L 212.8 327.88 C 211.987 327.88 211.173 327.88 210.36 327.88 L 200.16 327.88 C 199.41 327.88 198.66 327.88 197.91 327.88 L 178.91 327.88 C 177.877 327.88 176.843 327.88 175.81 327.88 L 149.348 327.88 C 148.612 327.88 147.876 327.88 147.14 327.88 L 144.51 327.88 C 143.74 327.88 142.97 327.88 142.2 327.88 L 124.63 327.88 L 80.78 327.88"
                  keyTimes="0; 1"
                  dur="0.25s"
                  begin="mountain_animate.end"
                  fill="freeze"
    >
    </animate>
  </g>

  <g id="opacity_dirigible">
    <g id="dirigible">
      <g id="cabin">
        <path d="M175.44,249.28h48.36a13.27,13.27,0,0,0,13-10.65l3.74-18.32H172.36v25.89A3.09,3.09,0,0,0,175.44,249.28Z" fill="none" stroke="#fff" stroke-linecap="round" stroke-linejoin="round" stroke-width="2"/>
        <path d="M235.79,241.69h-9.22a8.31,8.31,0,0,1-8.28-8.31V220.31" fill="none" stroke="#fff" stroke-linecap="round" stroke-miterlimit="10" stroke-width="2"/>

        <path d="M185.64,231.88h-2.05a3.45,3.45,0,0,0-3.43,3.45v2.92a3.45,3.45,0,0,0,3.43,3.45h2.05a3.45,3.45,0,0,0,3.43-3.45v-2.92A3.45,3.45,0,0,0,185.64,231.88Z" fill="none" stroke="#fff" stroke-linecap="round" stroke-linejoin="round" stroke-width="2"/>
        <path id="cabin_window_small" d="M204.25,231.88h-2.05a3.45,3.45,0,0,0-3.43,3.45v2.92a3.45,3.45,0,0,0,3.43,3.45h2.05a3.45,3.45,0,0,0,3.43-3.45v-2.92A3.44,3.44,0,0,0,204.25,231.88Z" fill="none" stroke="#fff" stroke-linecap="round" stroke-linejoin="round" stroke-width="2"/>
      </g>
        <g id="tail_behind">
          <path d="M123.23,173.34h9.16a3.29,3.29,0,0,1,3.29,3.3v5.71a3.29,3.29,0,0,1-3.29,3.3H115.57a1.32,1.32,0,0,1-1.32-1.32v-2a9,9,0,0,1,9-9" fill="#068e4d"/>
          <path d="M123.23,173.34h9.16a3.29,3.29,0,0,1,3.29,3.3v5.71a3.29,3.29,0,0,1-3.29,3.3H115.57a1.32,1.32,0,0,1-1.32-1.32v-2A9,9,0,0,1,123.23,173.34Z" fill="none" stroke="#fff" stroke-linecap="round" stroke-linejoin="round" stroke-width="2"/>
          <path d="M123.23,207.39h9.16a3.29,3.29,0,0,0,3.29-3.3v-5.71a3.29,3.29,0,0,0-3.29-3.3H115.57a1.32,1.32,0,0,0-1.32,1.32v2a9,9,0,0,0,9,9" fill="#068e4d"/>
          <path d="M123.23,207.39h9.16a3.29,3.29,0,0,0,3.29-3.3v-5.71a3.29,3.29,0,0,0-3.29-3.3H115.57a1.32,1.32,0,0,0-1.32,1.32v2A9,9,0,0,0,123.23,207.39Z" fill="none" stroke="#fff" stroke-linecap="round" stroke-linejoin="round" stroke-width="2"/>
        </g>
        <g id="body">
          <path d="M205,227.08c43.38,0,74.86-15.55,74.86-37s-31.48-37-74.86-37c-27.94,0-55.36,13.53-73.46,24.87a14.3,14.3,0,0,0,0,24.21c18.09,11.33,45.52,24.87,73.46,24.87" fill="#068e4d"/>
          <path d="M205,227.08c43.38,0,74.86-15.55,74.86-37s-31.48-37-74.86-37c-27.94,0-55.36,13.53-73.46,24.87a14.3,14.3,0,0,0,0,24.21C149.63,213.54,177.06,227.08,205,227.08Z" fill="none" stroke="#fff" stroke-width="2"/>
          <path d="M205,176.09c-28.23,0-56.07,5.76-72.81,10-3.95,1-6,2.66-6.08,4.34A12.93,12.93,0,0,1,132.18,179c16.74-10.5,44.58-24.68,72.81-24.68,44.81,0,73.64,16,73.64,35.75,0,0.12,0,.24,0,0.37-0.37-7.95-29.1-14.37-73.63-14.37" fill="#36e69a"/>
          <path d="M132.18,195.12c16.74,4.27,44.58,10,72.81,10,44.14,0,72.75-6.32,73.6-14.18-0.86,19.34-29.45,34.86-73.6,34.86-28.23,0-56.07-14.19-72.81-24.68a12.88,12.88,0,0,1-6-10.18c0.26,1.61,2.26,3.18,6,4.14" fill="#068e4d"/>
          <path id="middle_body" d="M132.18,186.12c16.74-4.27,44.58-10,72.81-10,44.53,0,73.26,6.43,73.61,14.38,0,0.17,0,.34,0,0.51-0.85,7.86-29.45,14.17-73.6,14.17-28.23,0-56.07-5.76-72.81-10-3.79-1-5.79-2.53-6-4.13l0-.51c0.13-1.69,2.15-3.36,6.1-4.37" fill="#25b774"/>
        </g>

        <path id="cabin_window_big" d="M204.25,231.88h-2.05a3.45,3.45,0,0,0-3.43,3.45v2.92a3.45,3.45,0,0,0,3.43,3.45h2.05a3.45,3.45,0,0,0,3.43-3.45v-2.92A3.44,3.44,0,0,0,204.25,231.88Z" fill="none" stroke="#fff" stroke-linecap="round" stroke-linejoin="round" stroke-width="2"/>

        <g id="tail_front">
          <path d="M123.23,173.34h9.16a3.29,3.29,0,0,1,3.29,3.3v5.71a3.29,3.29,0,0,1-3.29,3.3H115.57a1.32,1.32,0,0,1-1.32-1.32v-2a9,9,0,0,1,9-9" fill="#068e4d"/>
          <path d="M123.23,173.34h9.16a3.29,3.29,0,0,1,3.29,3.3v5.71a3.29,3.29,0,0,1-3.29,3.3H115.57a1.32,1.32,0,0,1-1.32-1.32v-2A9,9,0,0,1,123.23,173.34Z" fill="none" stroke="#fff" stroke-linecap="round" stroke-linejoin="round" stroke-width="2"/>
          <path d="M123.23,207.39h9.16a3.29,3.29,0,0,0,3.29-3.3v-5.71a3.29,3.29,0,0,0-3.29-3.3H115.57a1.32,1.32,0,0,0-1.32,1.32v2a9,9,0,0,0,9,9" fill="#068e4d"/>
          <path d="M123.23,207.39h9.16a3.29,3.29,0,0,0,3.29-3.3v-5.71a3.29,3.29,0,0,0-3.29-3.3H115.57a1.32,1.32,0,0,0-1.32,1.32v2A9,9,0,0,0,123.23,207.39Z" fill="none" stroke="#fff" stroke-linecap="round" stroke-linejoin="round" stroke-width="2"/>
        </g>
        <g id="air" style="transform-origin: 100% 0">
          <line id="air1" x1="106.25" y1="179.49" x2="84.05" y2="179.49" fill="none" stroke="#fff" stroke-linecap="round" stroke-miterlimit="10" stroke-width="2"/>

          <line id="air2" x1="106.25" y1="190.98" x2="68.77" y2="190.98" fill="none" stroke="#fff" stroke-linecap="round" stroke-miterlimit="10" stroke-width="2"/>
          <line id="air3" x1="106.25" y1="201.23" x2="84.05" y2="201.23" fill="none" stroke="#fff" stroke-linecap="round" stroke-miterlimit="10" stroke-width="2"/>
        </g>
      </g>

      <g id="cloud1" >
        <line id="cloud1_line" x1="68.95" y1="107.8" x2="131.86" y2="107.8" fill="none" stroke="#fff" stroke-linecap="round" stroke-miterlimit="10" stroke-width="2"/>
        <path id="cloud1_path" d="M41.77,97.54H77.06a12.4,12.4,0,1,1,24.8,0h17.93" fill="none" stroke="#fff" stroke-linecap="round" stroke-miterlimit="10" stroke-width="2"/>
      </g>

      <g id="cloud2" style="opacity:0">
        <g id="cloud2_path">
          <path d="M278.75,82.91H251.39a12.4,12.4,0,1,0-24.8,0H208.65" fill="none" stroke="#fff" stroke-linecap="round" stroke-miterlimit="10" stroke-width="2"/>
          <line x1="287.01" y1="82.91" x2="309.21" y2="82.91" fill="none" stroke="#fff" stroke-linecap="round" stroke-miterlimit="10" stroke-width="2"/>
        </g>
        <line id="cloud2_line" x1="258.96" y1="93.19" x2="298.74" y2="93.19" fill="none" stroke="#fff" stroke-linecap="round" stroke-miterlimit="10" stroke-width="2"/>
      </g>
  </g>

  <g id="mountain" >
    <path id="mountain_path" d="M289.94,327.88H244.88L212.8,296.58a1.89,1.89,0,0,0-2.44,0l-10.2,10.23a1.72,1.72,0,0,1-2.25,0l-19-20.17a2.4,2.4,0,0,0-3.1,0l-26.42,25.64a1.71,1.71,0,0,1-2.25,0l-2.63-2.92a1.71,1.71,0,0,0-2.31,0L124.63,329H80.78" fill="none" stroke="#fff" stroke-linecap="round" stroke-miterlimit="10" stroke-width="2"/>
    <path d="M289.94,328H200.15c-0.86,0-1.56,0-2.25,0h-19c-1.5,0-2.23,0-3.1,0h-32.3c-1.09,0-1.66,0-2.31,0H80.78" fill="none" stroke="#fff" stroke-linecap="round" stroke-miterlimit="10" stroke-width="2"/>
  </g>
</svg>
