<svg xmlns="http://www.w3.org/2000/svg" xmlns:xlink="http://www.w3.org/1999/xlink" viewBox="0 0 350 330">
  <animateTransform
  xlink:href="#cloud_top_suitcase"
  id="cloud_top_suitcase_animate"
  attributeName="transform"
  type="translate"
  dur="0.4s"
  fill="freeze"
  values="65,0; 0,0"
  calcMode="spline"
  keySplines="0.33 1 0.68 1"
  >
  </animateTransform>
  <animateTransform
  xlink:href="#cloud_middle_suitcase"
  attributeName="transform"
  type="translate"
  dur="0.4s"
  fill="freeze"
  values="85,0; 0,0"
  calcMode="spline"
  keySplines="0.33 1 0.68 1"
  >
  </animateTransform>
  <animateTransform
  xlink:href="#cloud_bottom_suitcase"
  attributeName="transform"
  type="translate"
  dur="0.4s"
  fill="freeze"
  values="43,0; 0,0"
  calcMode="spline"
  keySplines="0.33 1 0.68 1"
  >
  </animateTransform>
  <animateTransform
  xlink:href="#clouds_suitcase"
  attributeName="transform"
  id="clouds_suitcase_animate"
  type="translate"
  dur="0.3"
  fill="freeze"
  values="0,0; 0,-50"
  calcMode="spline"
  keySplines="0.7 0 0.84 0"
  begin="cloud_top_suitcase_animate.begin + 1s"
  >
  </animateTransform>
  <animate xlink:href="#clouds_suitcase"
              begin="clouds_suitcase_animate.begin"
              attributeType="CSS"
              attributeName="opacity"
              values="1;0"
              calcMode="spline"
              keySplines="0.7 0 0.84 0"
              dur="0.3s"
              fill="freeze"
  >
  </animate>

  <g id="clouds_suitcase">
    <g id="cloud_top_suitcase">
      <path d="M85.22,67.45H57.86a12.4,12.4,0,1,0-24.8,0H15.13" fill="none" stroke="#fff" stroke-linecap="round" stroke-miterlimit="10" stroke-width="2"/>
      <line x1="93.48" y1="67.45" x2="115.68" y2="67.45" fill="none" stroke="#fff" stroke-linecap="round" stroke-miterlimit="10" stroke-width="2"/>
      <line x1="65.43" y1="77.72" x2="105.21" y2="77.72" fill="none" stroke="#fff" stroke-linecap="round" stroke-miterlimit="10" stroke-width="2"/>
    </g>
    <g id="cloud_middle_suitcase">
      <path d="M235.77,119H216.32a35.49,35.49,0,0,0-68-13.69A26.34,26.34,0,0,0,135.43,102a26.72,26.72,0,0,0-24.8,17H95.48a10.49,10.49,0,0,0,0,21h140.3a10.49,10.49,0,0,0,0-21" fill="#fff"/>
    </g>
    <g id="cloud_bottom_suitcase">
      <line x1="272.13" y1="145.27" x2="311.9" y2="145.27" fill="none" stroke="#fff" stroke-linecap="round" stroke-miterlimit="10" stroke-width="2"/>
      <line x1="300.17" y1="135" x2="322.37" y2="135" fill="none" stroke="#fff" stroke-linecap="round" stroke-miterlimit="10" stroke-width="2"/>
    </g>
  </g>
</svg>
